<?xml version="1.0" encoding="utf-8"?>
<!-- Generator: Adobe Illustrator 15.0.0, SVG Export Plug-In . SVG Version: 6.00 Build 0)  -->
<!DOCTYPE svg PUBLIC "-//W3C//DTD SVG 1.1//EN" "http://www.w3.org/Graphics/SVG/1.1/DTD/svg11.dtd">
<svg version="1.1" id="Слой_1" xmlns="http://www.w3.org/2000/svg" xmlns:xlink="http://www.w3.org/1999/xlink" x="0px" y="0px"
	 width="595.281px" height="841.891px" viewBox="0 0 595.281 841.891" enable-background="new 0 0 595.281 841.891"
	 xml:space="preserve">
<title>ogg_logo_new</title>
<path fill="#CC0000" d="M297.438,123.305C133.167,123.305,0,256.472,0,420.743s133.167,297.438,297.438,297.438
	s297.438-133.168,297.438-297.438S461.708,123.305,297.438,123.305z M396.044,595.327c-78.4,59.811-188.727,40.816-250.154-42.434
	c-48.495-65.469-52.537-149.527-10.507-220.654c61.832-105.073,198.427-149.123,310.371-100.628l10.104,5.254l-92.949-3.233v2.829
	l24.65,4.041v4.445c-8.891,1.213-18.186,4.042-27.076,3.233c-79.209-6.87-181.049,55.365-206.914,138.212
	c-28.289,90.524,30.31,189.132,122.451,203.276c64.66,9.699,130.128-37.18,137.404-101.437c4.041-36.371-12.934-64.66-42.434-84.866
	c-29.502-20.207-52.133-16.974-78.401-2.021c-26.268,14.953-34.351,34.352-29.905,61.428c1.32-2.591,2.402-5.296,3.233-8.082
	c5.254-27.48,20.207-44.051,44.05-48.092c25.662-5.158,51.736,6.738,64.66,29.502c24.248,40.816-1.617,94.161-51.324,103.86
	c-37.18,7.274-66.277-7.274-88.1-36.775c-21.823-29.501-21.419-70.318-3.233-99.416c47.283-75.976,153.569-73.551,203.681,4.85
	C474.447,469.239,457.472,548.448,396.044,595.327z"/>
<path fill="#FFFFFF" d="M318.453,511.672c27.98-2.814,48.383-27.78,45.568-55.761c-2.471-24.547-22.182-43.793-46.781-45.675
	c-31.925,1.212-49.303,24.651-50.919,50.92C264.704,487.425,290.972,512.076,318.453,511.672z M320.07,440.546
	c11.375,0.426,20.25,9.993,19.824,21.367c-0.006,0.152-0.014,0.304-0.023,0.456c-0.893,11.123-10.637,19.416-21.76,18.521
	s-19.416-10.637-18.521-21.761C300.443,448.502,309.408,440.367,320.07,440.546z"/>
</svg>
